<svg xmlns="http://www.w3.org/2000/svg" width="20" height="21" fill="none">
  <path fill="#fff" fill-rule="evenodd" d="M7.708 13.833a2.292 2.292 0 1 1 4.584 0 2.292 2.292 0 0 1-4.584 0ZM10 12.792a1.042 1.042 0 1 0 0 2.083 1.042 1.042 0 0 0 0-2.083Z" clip-rule="evenodd"/>
  <path fill="#fff" fill-rule="evenodd" d="M4.375 8.252V7.167a5.625 5.625 0 0 1 11.25 0v1.085c.19.014.367.03.535.053.75.101 1.381.317 1.883.819.502.501.718 1.133.818 1.883.097.722.097 1.64.097 2.78v.092c0 1.14 0 2.058-.097 2.78-.1.75-.316 1.382-.818 1.884s-1.133.717-1.883.818c-.723.097-1.641.097-2.78.097H6.62c-1.14 0-2.058 0-2.78-.097-.75-.1-1.382-.316-1.884-.818s-.717-1.133-.818-1.883c-.097-.723-.097-1.641-.097-2.78v-.092c0-1.14 0-2.059.097-2.781.1-.75.316-1.382.818-1.883.502-.502 1.133-.718 1.883-.819.168-.022.346-.04.535-.053Zm1.25-1.085a4.375 4.375 0 0 1 8.75 0V8.21c-.311-.003-.643-.003-.996-.003H6.621c-.353 0-.685 0-.996.003V7.167ZM4.007 9.544c-.612.082-.935.233-1.166.463-.23.231-.381.555-.463 1.166-.085.63-.086 1.464-.086 2.66 0 1.197.001 2.03.086 2.66.082.612.232.936.463 1.166.23.23.554.381 1.166.463.63.085 1.464.086 2.66.086h6.666c1.197 0 2.03-.001 2.66-.086.612-.082.936-.232 1.166-.463.23-.23.381-.554.463-1.166.085-.63.086-1.463.086-2.66 0-1.196 0-2.03-.085-2.66-.083-.611-.233-.935-.464-1.165-.23-.231-.554-.381-1.166-.464-.63-.084-1.463-.086-2.66-.086H6.667c-1.196 0-2.03.002-2.66.086Z" clip-rule="evenodd"/>
</svg>
